<mxfile host="app.diagrams.net" modified="2022-03-15T11:09:37.036Z" agent="5.0 (Windows NT 10.0; Win64; x64) AppleWebKit/537.36 (KHTML, like Gecko) Chrome/99.0.4844.51 Safari/537.36 Edg/99.0.1150.39" etag="a-V_cYBPjIK4DQxjhYqc" version="17.1.2" type="github">
  <diagram id="zpymU58glzaTy3O_ghcd" name="Page-1">
    <mxGraphModel dx="1404" dy="804" grid="1" gridSize="10" guides="1" tooltips="1" connect="1" arrows="1" fold="1" page="1" pageScale="1" pageWidth="850" pageHeight="1100" math="0" shadow="0">
      <root>
        <mxCell id="0" />
        <mxCell id="1" parent="0" />
        <mxCell id="v_2MPb_NcIat8Og6rA1i-2" value="" style="shape=image;html=1;verticalAlign=top;verticalLabelPosition=bottom;labelBackgroundColor=#ffffff;imageAspect=0;aspect=fixed;image=https://cdn1.iconfinder.com/data/icons/picons-social/57/github_rounded-128.png" vertex="1" parent="1">
          <mxGeometry x="150" y="160" width="90" height="90" as="geometry" />
        </mxCell>
        <mxCell id="v_2MPb_NcIat8Og6rA1i-39" value="Dependabot invoked&amp;nbsp;&lt;br&gt;based on Scheduling" style="edgeStyle=orthogonalEdgeStyle;rounded=0;orthogonalLoop=1;jettySize=auto;html=1;" edge="1" parent="1" source="v_2MPb_NcIat8Og6rA1i-9" target="v_2MPb_NcIat8Og6rA1i-37">
          <mxGeometry relative="1" as="geometry" />
        </mxCell>
        <mxCell id="v_2MPb_NcIat8Og6rA1i-9" value="" style="shape=image;verticalLabelPosition=bottom;labelBackgroundColor=default;verticalAlign=top;aspect=fixed;imageAspect=0;image=data:image/svg+xml,PHN2ZyB4bWxucz0iaHR0cDovL3d3dy53My5vcmcvMjAwMC9zdmciIHdpZHRoPSIxMiIgaGVpZ2h0PSIxNiIgdmlld0JveD0iMCAwIDEyIDE2Ij48cGF0aCBmaWxsPSIjMDAwIiBmaWxsLXJ1bGU9ImV2ZW5vZGQiIGQ9Ik00IDlIM1Y4aDF2MXptMC0zSDN2MWgxVjZ6bTAtMkgzdjFoMVY0em0wLTJIM3YxaDFWMnptOC0xdjEyYzAgLjU1LS40NSAxLTEgMUg2djJsLTEuNS0xLjVMMyAxNnYtMkgxYy0uNTUgMC0xLS40NS0xLTFWMWMwLS41NS40NS0xIDEtMWgxMGMuNTUgMCAxIC40NSAxIDF6bS0xIDEwSDF2Mmgydi0xaDN2MWg1di0yem0wLTEwSDJ2OWg5VjF6Ii8+PC9zdmc+;" vertex="1" parent="1">
          <mxGeometry x="280" y="350" width="48.75" height="65" as="geometry" />
        </mxCell>
        <mxCell id="v_2MPb_NcIat8Og6rA1i-10" value="" style="shape=image;verticalLabelPosition=bottom;labelBackgroundColor=default;verticalAlign=top;aspect=fixed;imageAspect=0;image=data:image/png,iVBORw0KGgoAAAANSUhEUgAAADAAAAAwCAYAAABXAvmHAAAACXBIWXMAAAsTAAALEwEAmpwYAAAB4klEQVRo3u2ZyWrDMBCG5VCS+lYKvfTQQqGPFwo2gfTQ5VbIpY+UhNJDII4v7qMkgW7puIyD4lrSWJK3ooEfgi1+z6fFkUeM1Rf3oB7raDyAvtoA4KHKJr9rEsAHhaAItEVFeM0nJt8YwAUo4ZLI6w10SUi+EQA/l/wcez3E3zyEr0g+AzhCiFpAAu7h44L7Y+5+qEieh8i0BsWgJ9BVFQBLrudFkY1EREhepnfQBDSwCbAt6N18hNgmbfuomTyvF9CJLYANmgY1AqR6BR3bAFig4YwwhZaGUyivZxsAQ85wpFjENxqLWAbwAbo2BUgX1IozneJ0yr9G44LFR3mNnmG7TwHExMYonHNvoyJF2Mbkj+xW4B3bWswDwZB/g/oWthKnAoC1LYCeBICysVNt5jz02lW19TAFUG2nOwGQxl3XAWTfGA7AATgAB+AAHIADcAAOwAH8UwCTT0pK9CUAxpU6k4/6xv3zZRVRdXql2VNV+x8UtlTV6WEL/felRUp1etFC/31xl1Kd3rTQn1ReDwwekPlTq9+lg3LAMWWH1Wkd/zLV71KhOmIacfcDQ39V9VvHX3rIN+OuJ0x93ErxF1W/df1/Q3XMmmCbtvrveypgegfdbfD/s/HyWHVRtb8L6/EDuiNNgMsKCQoAAAAASUVORK5CYII=;" vertex="1" parent="1">
          <mxGeometry x="300" y="170" width="20" height="20" as="geometry" />
        </mxCell>
        <mxCell id="v_2MPb_NcIat8Og6rA1i-11" value="" style="shape=image;verticalLabelPosition=bottom;labelBackgroundColor=default;verticalAlign=top;aspect=fixed;imageAspect=0;image=data:image/png,iVBORw0KGgoAAAANSUhEUgAAAEAAAABACAYAAACqaXHeAAAACXBIWXMAAAsSAAALEgHS3X78AAADnklEQVR42u1aW4hNYRTes8+ZYSK3aFC8iIQOhRelyCUkDyJNTXigDImR8iAPkvthanIfDM2DkvKEmHiRTLnNy7y4RTKaBiEct3Gsv/OtrP72nHGcfc7e+z//V1/7nLVv/1rrX/9a6z/HcSwsLCwsLCwsLCzyQYzo4rOL7yWDshzlRmIhsYl4jdhMXFpKhjhITHuwsUCzLQaWBR3zCiuFwleIdcSLQrZZuz4fxb0UdoP2/m0o2qzJ6yFv90l5xgRiDbGaOCboMOtH7ISic4VMYTLkX4lVeQyS7+lDPEP8KWZXipgM0vtqUE8wmFWQxXFcBHkXcZAPBpBh9ZT4QnxvCCIc+GUnMYjHxBmQK+8/gvxSHsrzO+YJZTdBXkHcBVk3MVFsI7BCo4kdGMhv4ksxTT8iZv93YDybWNGrHtc8xLkN2j1FnQXjibdgAPbUXeLUPL3Ci+cBPPOcCD1W9AbO1QVhAF25YxjMBZ/SlJ5q3yK8GLOI33FuTpBpsQLHPRjMCZ+9UYl0qp79Bin2KPE9ZDfD0AjJqdroozf4GROx+uvVZitxRNAlNxtgfwEMIJ+jYv8I3vGNuF4o7YZhBhTKADLMVuMdr8NUDhfDAPysy3hHS5g6zUIboBzH6cQfeMdWn5qsUBvAFZlkILFNZIJhJswAbnFdwbiHVxNC+TS6wdB4P1cDxHIYeAKNzheh/PawLHy5GiDmMb0HE8cSJxGnERcQ1xIPo5SWre870XGGDtkM4GpxOh9ebYVSKSxs3T1sq3Xi+lFh9HxvBigX1ywn3utBSaby+Ae00k3I+VVZZlFoDXBKnBuCPQGpaBum+RriEkz92cQpWN3jHuES6p1l3QBn8X0cNkpY8TtOZvv8XzzJP65EYktdN0ADFrhXQvkdHvdwynN7WC8iA70bPE+8LraraqIQx34YIAmlPwvPrxN7A8b+QsQGOCRaVXU8bbLXsxkgjfjPZzs88gao9XlbLBIG4B9JVerr75QQuOLbp1WCJeF9WZsntUIotLW738qrcvc46nhOg6oWGGmyEXhlH0B8IBa/T+KzWguGm5oJeOHb6/zdpV1GHEpcTHyuNUZGzgK1+LVrFR+jGvIOkzOCUqwLis6ETP+DRMrkMFAK3Yei9dq5nZCrUOhrcvGzBYr+QryvQDvM/cDuUkiH+o4Ps0V438h+QCq10cn8Y+yZk9nR3SYqRKObIV25yl7OG98QOaWyB2BhYWFhYWERffwBlKkKJt/fDGkAAAAASUVORK5CYII=;" vertex="1" parent="1">
          <mxGeometry x="403" y="20" width="22" height="22" as="geometry" />
        </mxCell>
        <mxCell id="v_2MPb_NcIat8Og6rA1i-12" value="" style="shape=image;verticalLabelPosition=bottom;labelBackgroundColor=default;verticalAlign=top;aspect=fixed;imageAspect=0;image=data:image/png,iVBORw0KGgoAAAANSUhEUgAAAOEAAADhCAMAAAAJbSJIAAAAkFBMVEX///8QXowAWYoNXo0AX43M2eLAz9vS3eUQX4vX4ekAW4ytwdH7/f4AWIoAXY75+/x0mLPw9fjm7fIAU4erw9N1nbinvM3y9/qgt8kuc5u5zNno7fKSssgscJsAZpRnkrCHqcFFgKZQiauHrcVAeqBgkLClwtN7psAAWI1Vg6RCgKWVtcqJrsZRi6waa5jc6fDnQ+JvAAAMi0lEQVR4nO2dgZKiuhKGgYBGLgkHlHFgAIVV2dVZfP+3u0lQZ0ZREyEJbvlXnak9VQp8dkg6nU7HMFTJmzuff2Nowrj85cw9ZfdVJX/yK0MYA2CaALvT7HPi636kfjVJa4RNCE0i+gejOp3ofqge5ScFAoyuIYQQQICK5J8x42RZYwhPhAdMAOrlXvej9SDP8GcFpkg/CWlbtUExe3ozekb4nw0OL595wQjsRWg8c7fqGd4sdy/ZvhBNN595T8zofaynAF400B+IYLr+eFrCYJbhyxfwghFns0D3oz4kz4ls3P4GnlECEDlPaMZgt8LgtgGPZoQmXu2ey4zEIM6adjH3+RgjJB3O2jGeqsfZkTGex4BfwvVO90MLaPyH8HEa8FtTLca6H5xTHykbA0UAG2fVtdMP3Q/PId8pkXlnjGhHJLJKZ/BuXJjWFhR8BQ+I5FvArdNQN8JNeaM1sgVfwTNGtB4N2IzhMgPgAfN9g6QuznKYZiRjWVJem0aImJG4qkUywLGRTBAiGoTpZMGDFakb5w8O0RvlyHz4DTwzIzRRPhoWoRdWU9CZ7cRIzTitwgExzhMWqOhPzMXZDmdSNVnWLnuoPhGJGetqIAHH94JvmiTISMM4xUY3HNF+UXNPk0QhTbdeaA84bjLQSw/aTgghzvSacfLXBbL4zEOkyi31vY3BrHYf87JFEElT3WjqVJ2FBfrtQdsYiYC1cDTwhW+Z1Y8Tcw+R9jjZm3Jv3FnYMt/AH4zkPwCUmtEzgjQG8lvod0Zgx2mgzhsfl7YptYdpE7BLZWasrD6mSWJiLg6qVOD5zuq3sub5HZH++b2SHqnywhSKxkJ7ZITYTuVOqvykxEAH3UkAlzKX//fLzNVkwC+5maTlf9I2ZgUAmvFoFw5wMZMSqQqj2tJL14j2qnUkwcVJYle3/Q5iPU6W9My3j7C8eaComvh/1OfbGCQx6hrr7VPM20Bx0tukahK5AJ4nNekVi1RZUT9z42BWoO6RNDZBOL9Gp2uSXxwVfQQcx1HdjxcKLGSdCVkdwsjsN8ujbuvGnuG9r3rqYQCOnMmZHNJ/dbkm9cbj9045VeFf3Nc0wv2vZQgLo+s5YXyEZPwvH+9Uvc1UNKPi+sO4b223+F9XJ4I8H57uHjOiP173GSqURkjHxvX4AW88fM/6nCZds6Hb+QZNaty7sBs36jnSdLWV9nALujRuL0ZCfMEytvoNpcmzodm4cVa25B0byVs7+oP7jqRJJaSMwLT/jLgmVZ4x/6z7n+dKJmQ9jlv/mvMgOjGyzd69bNmEzdwYxfcDjuES9Ltgfby/dMJm3ojvJON4zhbdSszucHv5hIecqu2tfOP5Wy5rMUIFodkMHPnb/BpgkAJpoUJFhPROwEyvjBv+rlnKkiJ1hNSQu3YnLsm7Zd3dvqs6GxKIvDVONVlhmUvylkIbQhC3xDf8CskMNSltpdBE1WVvM5HZRokU2pBu/csvjVhZcoNpVto2TMkhJIyXS41BLdeEJl4lLYjSCEF9PmIkU7nxXgjwavHflxLJhCb62Z16RoVlB3yB6X4JpZIJoVudTTO2WHJMG5pN+g+T6b7LJSQ+eHnWSmMpM4qr95dNSHrT7IwwV7p4LZ2QvPf5GaEtTsiaG3wsaH0i5IomPrIqBMAFoeAVWN2Ay6UITk2PPc30/hWQhcVnBBDYHQnpRAxv02T0oA6R+JDjo8lngYUTCNoIha4AaU2ETaBmh5IfbIBoJnlnQqKpWAi2m0aiDkkPNnQ3CvfteMbGVWxDCLZqd7R4W9EH7EqIdp5KRM/bIcXvIVL5FlKNxNZwutvQUr3veiy20tiDDdUTKm6l/74NX4Qvwhfhi/BF+CJ8Eb4IX4Qvwhfhi/BF+CJ8Eb4IX4QvwuERCgXHr+3xGTChL3ZKwLWPKyNkKe5QICI8qUqBvdeeE5Xt2aFjdLy7ZEJa9Ifmw0w5CZ0twqjg3QnpjTKM8aItVXs8RfTGvEvVHQgBXrxT8dVSdVYuhBAVfFb0khVdsm9F/GB3XfBu5+tA6IpsFCeA7EsWX62nUcxSXMmPeO33497O14HQEiih4hSHQmcAtLa8H/KMEStwThfscXQtQ8BB8gn5dxc7hX3I9jLNu/vnPcOB4PhxYF/7QSacXao0Qj8CpwJrxyba5GC1EoYLu07YAEgAp8e9VhAOlzBYY4Bxkyn/BUizvFpb6b5EAE9n9J/eyP4CvNFKNRN+LNhZMjlFdLbuVyJTe1W5fYFYrdKZT4eJ4wMQC+L11bd2ovU9DCO7uXi+ayzYmIS4B60D4r5scueBPZuP4pMFaVd6vVvSasP5Z3MaEH2NUgJ4OhkIbdu+4y2sg38EsogNm4eP37CgZsJ9AQ7vEbGDeTIJbAc0JlnzG1DE05Z4CljeciY0E2J4HBzMe02UfDw7UsGTv0n+uNur+7K0E3pv7nkmKDPJtS9U+Dynkn48vsWnuy+dp/ZPRJrAeMNfi862IbHf406Za82jxTyF5rcsSVrv4KZDGv1ILmfDxD2HXveIP0+Becp1pe/gbY/br+yvzNg7w8RACAni1Dz1GtC9NzEMlva3jokDUD+h4VNE2PSNdwEJYoVPzvnNcXA4hBTxUHKJA5C66qxHZcMET02EARASRFZgH1icsYtFM2jcGyYGREgQ6YbpW8PET5EeFZi44CsVNAhC0t1krr3mnylHtZuvOct2DIPQmCfLd4HSRv5syV1eZiCEEvUifBE+AyHn6sPDhEB5CvtPjRFf0LuLDSudZ6MElfxWCtwqoVLNGbC7VgrWLYg7Rnc98q499aZxsxdTwdoT+7qmVe5jLEc+IbmLDkKhJ3xlKrwIn5AQCO7lfj5C0d3qQyfsXnFg+IQXNhSs/DF4QnxOmGGxDe9DJwQXtU1KwQo8AyeE5/VpWI0hIcTB7wPG5zWGEvRPtdKLOlFNrS+RS6jfj8+ZonAgvKj15dF6bSJXsJTXVBB5PthSr43V3BP5jZTXxRDoCmlS1WU4idZN5O9sNNQ24f/5iVDVknI0WYlUuIYsJKWG0WMBKG6niy7zrFojgknNX2KXXsXd+IoI/Y3F73LRda+6PU/Q35n8tRPpdfB2N3Lka7TbYqHfHsArNWhpLgXgLhxGP4YfrvXFL2QhhKFIISxgX6sjfKoFzRnrUXQCYlMWjvfDt2tBf9XzlvrI0sRRz9toarIP6twjftH0iLs12amcGB0+/1zirasv62wE2aIPzHs2wvF8i6dqqyLnWzAFy1jqgds9ixpD4IySRqOFLbOAea+CD5wzY/R+VpA8MdfjgbOCDuc9DZ6RPuCD5z0ZzZld5sARaQt99MwuqrAc0NGVl2IG7HLu2uHsPNHiqMpEH8vueHaecTj/cIiDI32izucfMgX/a86wHBojeSCrlzMsjcM5pMN6G9kb2Nc5pEZzlqxupu9iP3efZ8kazXnA5lDMyN7Afs8DpqJnOg8CkRmw/zOdjeO53PoRqZct5Vzu49nq+vlMIOlsdaL9MnO1m9HNBGo0CMtPStDb8bLCapy0P4nUWvdemNpYk4vDIk12GsoOtPvO6reOhsrCs79XjpLDCiqkwcWhW9usy0VBSRqXtnJPFZp2KVCwops8I0hjoDA2TkOhdpwGClcsDcNZKEOkbQWAhTIDHhW+ZZZAzZ8ufJCMgW8SnJi7chaWgh6HtlBLvQEbBZvabR5CGl4TrH/TtwFi8lfqhKMJFXJvZJSjTSYv4Ni8gZv7DyFX+4WskxOJb+jWC4leNrc2hYxjoNmJUsW7brhGk2Utls/DJ1BXeneRfdN8thVMwL0raOK+QoW9yAuraX9jI+tCp5X0aZKYvFGO+nFx2Bvt5m3nsmqVZ3gR6KPHod+3QXSniIsOkQdKStvuaEbYRJoSVUmBogqXGeg8OOKMIyVGm/zRukNOFeth0Hqk5lTFR7VPydj40OvYxOrrdAhOzE35Tmk9kqjCvoBKNZGmjvpIc/GcKmp2N0/56r7q17gQTVSBzInRNM99SLv6ohjbLT5aFaze6X5oAXk0xJFzZzjQSFO+doY6Bl5TsFthrnxj1kBXuwF52bzynMjm2gUCAYju5PUOVcGM7Wq8RdkkpQ1pmiQm72N9c1LFErOn64FNk0REJhyz3L1qRmbAfNM1p0mvPFru+UoWB1uNWIRPzWdQRH/GatOe9aqHadLsGZy0+9ova3xGSP8P1zIX5NXKTwrra94I2TYYgAq5C/KKNUlrhJsNPs00CdWp3mB97/InnzHCLHUMYBdlvyb/kgEPmjuff+Mcwrj85YidzNJJ/wfOMwonElS+6wAAAABJRU5ErkJggg==;" vertex="1" parent="1">
          <mxGeometry x="280" y="600" width="40" height="40" as="geometry" />
        </mxCell>
        <mxCell id="v_2MPb_NcIat8Og6rA1i-32" value="Dependabot Enabled in Org level(UI)" style="edgeStyle=orthogonalEdgeStyle;rounded=0;orthogonalLoop=1;jettySize=auto;html=1;exitX=0.5;exitY=1;exitDx=0;exitDy=0;" edge="1" parent="1" source="v_2MPb_NcIat8Og6rA1i-13" target="v_2MPb_NcIat8Og6rA1i-2">
          <mxGeometry relative="1" as="geometry" />
        </mxCell>
        <mxCell id="v_2MPb_NcIat8Og6rA1i-13" value="" style="shape=image;verticalLabelPosition=bottom;labelBackgroundColor=default;verticalAlign=top;aspect=fixed;imageAspect=0;image=data:image/png,iVBORw0KGgoAAAANSUhEUgAAAOEAAADhCAMAAAAJbSJIAAAAkFBMVEX///8QXowAWYoNXo0AX43M2eLAz9vS3eUQX4vX4ekAW4ytwdH7/f4AWIoAXY75+/x0mLPw9fjm7fIAU4erw9N1nbinvM3y9/qgt8kuc5u5zNno7fKSssgscJsAZpRnkrCHqcFFgKZQiauHrcVAeqBgkLClwtN7psAAWI1Vg6RCgKWVtcqJrsZRi6waa5jc6fDnQ+JvAAAMi0lEQVR4nO2dgZKiuhKGgYBGLgkHlHFgAIVV2dVZfP+3u0lQZ0ZREyEJbvlXnak9VQp8dkg6nU7HMFTJmzuff2Nowrj85cw9ZfdVJX/yK0MYA2CaALvT7HPi636kfjVJa4RNCE0i+gejOp3ofqge5ScFAoyuIYQQQICK5J8x42RZYwhPhAdMAOrlXvej9SDP8GcFpkg/CWlbtUExe3ozekb4nw0OL595wQjsRWg8c7fqGd4sdy/ZvhBNN595T8zofaynAF400B+IYLr+eFrCYJbhyxfwghFns0D3oz4kz4ls3P4GnlECEDlPaMZgt8LgtgGPZoQmXu2ey4zEIM6adjH3+RgjJB3O2jGeqsfZkTGex4BfwvVO90MLaPyH8HEa8FtTLca6H5xTHykbA0UAG2fVtdMP3Q/PId8pkXlnjGhHJLJKZ/BuXJjWFhR8BQ+I5FvArdNQN8JNeaM1sgVfwTNGtB4N2IzhMgPgAfN9g6QuznKYZiRjWVJem0aImJG4qkUywLGRTBAiGoTpZMGDFakb5w8O0RvlyHz4DTwzIzRRPhoWoRdWU9CZ7cRIzTitwgExzhMWqOhPzMXZDmdSNVnWLnuoPhGJGetqIAHH94JvmiTISMM4xUY3HNF+UXNPk0QhTbdeaA84bjLQSw/aTgghzvSacfLXBbL4zEOkyi31vY3BrHYf87JFEElT3WjqVJ2FBfrtQdsYiYC1cDTwhW+Z1Y8Tcw+R9jjZm3Jv3FnYMt/AH4zkPwCUmtEzgjQG8lvod0Zgx2mgzhsfl7YptYdpE7BLZWasrD6mSWJiLg6qVOD5zuq3sub5HZH++b2SHqnywhSKxkJ7ZITYTuVOqvykxEAH3UkAlzKX//fLzNVkwC+5maTlf9I2ZgUAmvFoFw5wMZMSqQqj2tJL14j2qnUkwcVJYle3/Q5iPU6W9My3j7C8eaComvh/1OfbGCQx6hrr7VPM20Bx0tukahK5AJ4nNekVi1RZUT9z42BWoO6RNDZBOL9Gp2uSXxwVfQQcx1HdjxcKLGSdCVkdwsjsN8ujbuvGnuG9r3rqYQCOnMmZHNJ/dbkm9cbj9045VeFf3Nc0wv2vZQgLo+s5YXyEZPwvH+9Uvc1UNKPi+sO4b223+F9XJ4I8H57uHjOiP173GSqURkjHxvX4AW88fM/6nCZds6Hb+QZNaty7sBs36jnSdLWV9nALujRuL0ZCfMEytvoNpcmzodm4cVa25B0byVs7+oP7jqRJJaSMwLT/jLgmVZ4x/6z7n+dKJmQ9jlv/mvMgOjGyzd69bNmEzdwYxfcDjuES9Ltgfby/dMJm3ojvJON4zhbdSszucHv5hIecqu2tfOP5Wy5rMUIFodkMHPnb/BpgkAJpoUJFhPROwEyvjBv+rlnKkiJ1hNSQu3YnLsm7Zd3dvqs6GxKIvDVONVlhmUvylkIbQhC3xDf8CskMNSltpdBE1WVvM5HZRokU2pBu/csvjVhZcoNpVto2TMkhJIyXS41BLdeEJl4lLYjSCEF9PmIkU7nxXgjwavHflxLJhCb62Z16RoVlB3yB6X4JpZIJoVudTTO2WHJMG5pN+g+T6b7LJSQ+eHnWSmMpM4qr95dNSHrT7IwwV7p4LZ2QvPf5GaEtTsiaG3wsaH0i5IomPrIqBMAFoeAVWN2Ay6UITk2PPc30/hWQhcVnBBDYHQnpRAxv02T0oA6R+JDjo8lngYUTCNoIha4AaU2ETaBmh5IfbIBoJnlnQqKpWAi2m0aiDkkPNnQ3CvfteMbGVWxDCLZqd7R4W9EH7EqIdp5KRM/bIcXvIVL5FlKNxNZwutvQUr3veiy20tiDDdUTKm6l/74NX4Qvwhfhi/BF+CJ8Eb4IX4Qvwhfhi/BF+CJ8Eb4IX4QvwuERCgXHr+3xGTChL3ZKwLWPKyNkKe5QICI8qUqBvdeeE5Xt2aFjdLy7ZEJa9Ifmw0w5CZ0twqjg3QnpjTKM8aItVXs8RfTGvEvVHQgBXrxT8dVSdVYuhBAVfFb0khVdsm9F/GB3XfBu5+tA6IpsFCeA7EsWX62nUcxSXMmPeO33497O14HQEiih4hSHQmcAtLa8H/KMEStwThfscXQtQ8BB8gn5dxc7hX3I9jLNu/vnPcOB4PhxYF/7QSacXao0Qj8CpwJrxyba5GC1EoYLu07YAEgAp8e9VhAOlzBYY4Bxkyn/BUizvFpb6b5EAE9n9J/eyP4CvNFKNRN+LNhZMjlFdLbuVyJTe1W5fYFYrdKZT4eJ4wMQC+L11bd2ovU9DCO7uXi+ayzYmIS4B60D4r5scueBPZuP4pMFaVd6vVvSasP5Z3MaEH2NUgJ4OhkIbdu+4y2sg38EsogNm4eP37CgZsJ9AQ7vEbGDeTIJbAc0JlnzG1DE05Z4CljeciY0E2J4HBzMe02UfDw7UsGTv0n+uNur+7K0E3pv7nkmKDPJtS9U+Dynkn48vsWnuy+dp/ZPRJrAeMNfi862IbHf406Za82jxTyF5rcsSVrv4KZDGv1ILmfDxD2HXveIP0+Becp1pe/gbY/br+yvzNg7w8RACAni1Dz1GtC9NzEMlva3jokDUD+h4VNE2PSNdwEJYoVPzvnNcXA4hBTxUHKJA5C66qxHZcMET02EARASRFZgH1icsYtFM2jcGyYGREgQ6YbpW8PET5EeFZi44CsVNAhC0t1krr3mnylHtZuvOct2DIPQmCfLd4HSRv5syV1eZiCEEvUifBE+AyHn6sPDhEB5CvtPjRFf0LuLDSudZ6MElfxWCtwqoVLNGbC7VgrWLYg7Rnc98q499aZxsxdTwdoT+7qmVe5jLEc+IbmLDkKhJ3xlKrwIn5AQCO7lfj5C0d3qQyfsXnFg+IQXNhSs/DF4QnxOmGGxDe9DJwQXtU1KwQo8AyeE5/VpWI0hIcTB7wPG5zWGEvRPtdKLOlFNrS+RS6jfj8+ZonAgvKj15dF6bSJXsJTXVBB5PthSr43V3BP5jZTXxRDoCmlS1WU4idZN5O9sNNQ24f/5iVDVknI0WYlUuIYsJKWG0WMBKG6niy7zrFojgknNX2KXXsXd+IoI/Y3F73LRda+6PU/Q35n8tRPpdfB2N3Lka7TbYqHfHsArNWhpLgXgLhxGP4YfrvXFL2QhhKFIISxgX6sjfKoFzRnrUXQCYlMWjvfDt2tBf9XzlvrI0sRRz9toarIP6twjftH0iLs12amcGB0+/1zirasv62wE2aIPzHs2wvF8i6dqqyLnWzAFy1jqgds9ixpD4IySRqOFLbOAea+CD5wzY/R+VpA8MdfjgbOCDuc9DZ6RPuCD5z0ZzZld5sARaQt99MwuqrAc0NGVl2IG7HLu2uHsPNHiqMpEH8vueHaecTj/cIiDI32izucfMgX/a86wHBojeSCrlzMsjcM5pMN6G9kb2Nc5pEZzlqxupu9iP3efZ8kazXnA5lDMyN7Afs8DpqJnOg8CkRmw/zOdjeO53PoRqZct5Vzu49nq+vlMIOlsdaL9MnO1m9HNBGo0CMtPStDb8bLCapy0P4nUWvdemNpYk4vDIk12GsoOtPvO6reOhsrCs79XjpLDCiqkwcWhW9usy0VBSRqXtnJPFZp2KVCwops8I0hjoDA2TkOhdpwGClcsDcNZKEOkbQWAhTIDHhW+ZZZAzZ8ufJCMgW8SnJi7chaWgh6HtlBLvQEbBZvabR5CGl4TrH/TtwFi8lfqhKMJFXJvZJSjTSYv4Ni8gZv7DyFX+4WskxOJb+jWC4leNrc2hYxjoNmJUsW7brhGk2Utls/DJ1BXeneRfdN8thVMwL0raOK+QoW9yAuraX9jI+tCp5X0aZKYvFGO+nFx2Bvt5m3nsmqVZ3gR6KPHod+3QXSniIsOkQdKStvuaEbYRJoSVUmBogqXGeg8OOKMIyVGm/zRukNOFeth0Hqk5lTFR7VPydj40OvYxOrrdAhOzE35Tmk9kqjCvoBKNZGmjvpIc/GcKmp2N0/56r7q17gQTVSBzInRNM99SLv6ohjbLT5aFaze6X5oAXk0xJFzZzjQSFO+doY6Bl5TsFthrnxj1kBXuwF52bzynMjm2gUCAYju5PUOVcGM7Wq8RdkkpQ1pmiQm72N9c1LFErOn64FNk0REJhyz3L1qRmbAfNM1p0mvPFru+UoWB1uNWIRPzWdQRH/GatOe9aqHadLsGZy0+9ova3xGSP8P1zIX5NXKTwrra94I2TYYgAq5C/KKNUlrhJsNPs00CdWp3mB97/InnzHCLHUMYBdlvyb/kgEPmjuff+Mcwrj85YidzNJJ/wfOMwonElS+6wAAAABJRU5ErkJggg==;" vertex="1" parent="1">
          <mxGeometry x="175" y="20" width="40" height="40" as="geometry" />
        </mxCell>
        <mxCell id="v_2MPb_NcIat8Og6rA1i-27" style="edgeStyle=orthogonalEdgeStyle;rounded=0;orthogonalLoop=1;jettySize=auto;html=1;entryX=0;entryY=0.5;entryDx=0;entryDy=0;" edge="1" parent="1" source="v_2MPb_NcIat8Og6rA1i-24" target="v_2MPb_NcIat8Og6rA1i-9">
          <mxGeometry relative="1" as="geometry">
            <Array as="points">
              <mxPoint x="195" y="383" />
            </Array>
          </mxGeometry>
        </mxCell>
        <mxCell id="v_2MPb_NcIat8Og6rA1i-24" value="Eli &amp;amp; Lilly Github" style="text;html=1;align=center;verticalAlign=middle;resizable=0;points=[];autosize=1;strokeColor=none;fillColor=none;" vertex="1" parent="1">
          <mxGeometry x="145" y="250" width="100" height="20" as="geometry" />
        </mxCell>
        <mxCell id="v_2MPb_NcIat8Og6rA1i-28" value="GitHub repo" style="text;html=1;align=center;verticalAlign=middle;resizable=0;points=[];autosize=1;strokeColor=none;fillColor=none;" vertex="1" parent="1">
          <mxGeometry x="264.38" y="420" width="80" height="20" as="geometry" />
        </mxCell>
        <mxCell id="v_2MPb_NcIat8Og6rA1i-31" value="Push Event" style="edgeStyle=orthogonalEdgeStyle;rounded=0;orthogonalLoop=1;jettySize=auto;html=1;entryX=0.458;entryY=1.25;entryDx=0;entryDy=0;entryPerimeter=0;" edge="1" parent="1" source="v_2MPb_NcIat8Og6rA1i-29" target="v_2MPb_NcIat8Og6rA1i-28">
          <mxGeometry relative="1" as="geometry">
            <Array as="points">
              <mxPoint x="301" y="465" />
            </Array>
          </mxGeometry>
        </mxCell>
        <mxCell id="v_2MPb_NcIat8Og6rA1i-29" value="" style="sketch=0;aspect=fixed;pointerEvents=1;shadow=0;dashed=0;html=1;strokeColor=none;labelPosition=center;verticalLabelPosition=bottom;verticalAlign=top;align=center;fillColor=#00188D;shape=mxgraph.azure.user" vertex="1" parent="1">
          <mxGeometry x="60" y="440" width="47" height="50" as="geometry" />
        </mxCell>
        <mxCell id="v_2MPb_NcIat8Og6rA1i-36" value="dependabot.yaml" style="endArrow=none;dashed=1;html=1;rounded=0;" edge="1" parent="1">
          <mxGeometry width="50" height="50" relative="1" as="geometry">
            <mxPoint x="300" y="600" as="sourcePoint" />
            <mxPoint x="300" y="460" as="targetPoint" />
          </mxGeometry>
        </mxCell>
        <mxCell id="v_2MPb_NcIat8Og6rA1i-41" value="GitHub repo scanning for&amp;nbsp;&lt;br&gt;Vulnerable Packages&amp;nbsp;" style="edgeStyle=orthogonalEdgeStyle;rounded=0;orthogonalLoop=1;jettySize=auto;html=1;entryX=0.5;entryY=1.125;entryDx=0;entryDy=0;entryPerimeter=0;" edge="1" parent="1" source="v_2MPb_NcIat8Og6rA1i-37" target="v_2MPb_NcIat8Og6rA1i-40">
          <mxGeometry relative="1" as="geometry" />
        </mxCell>
        <mxCell id="v_2MPb_NcIat8Og6rA1i-37" value="" style="shape=image;verticalLabelPosition=bottom;labelBackgroundColor=default;verticalAlign=top;aspect=fixed;imageAspect=0;image=data:image/png,iVBORw0KGgoAAAANSUhEUgAAAOEAAADhCAMAAAAJbSJIAAAAkFBMVEX///8QXowAWYoNXo0AX43M2eLAz9vS3eUQX4vX4ekAW4ytwdH7/f4AWIoAXY75+/x0mLPw9fjm7fIAU4erw9N1nbinvM3y9/qgt8kuc5u5zNno7fKSssgscJsAZpRnkrCHqcFFgKZQiauHrcVAeqBgkLClwtN7psAAWI1Vg6RCgKWVtcqJrsZRi6waa5jc6fDnQ+JvAAAMi0lEQVR4nO2dgZKiuhKGgYBGLgkHlHFgAIVV2dVZfP+3u0lQZ0ZREyEJbvlXnak9VQp8dkg6nU7HMFTJmzuff2Nowrj85cw9ZfdVJX/yK0MYA2CaALvT7HPi636kfjVJa4RNCE0i+gejOp3ofqge5ScFAoyuIYQQQICK5J8x42RZYwhPhAdMAOrlXvej9SDP8GcFpkg/CWlbtUExe3ozekb4nw0OL595wQjsRWg8c7fqGd4sdy/ZvhBNN595T8zofaynAF400B+IYLr+eFrCYJbhyxfwghFns0D3oz4kz4ls3P4GnlECEDlPaMZgt8LgtgGPZoQmXu2ey4zEIM6adjH3+RgjJB3O2jGeqsfZkTGex4BfwvVO90MLaPyH8HEa8FtTLca6H5xTHykbA0UAG2fVtdMP3Q/PId8pkXlnjGhHJLJKZ/BuXJjWFhR8BQ+I5FvArdNQN8JNeaM1sgVfwTNGtB4N2IzhMgPgAfN9g6QuznKYZiRjWVJem0aImJG4qkUywLGRTBAiGoTpZMGDFakb5w8O0RvlyHz4DTwzIzRRPhoWoRdWU9CZ7cRIzTitwgExzhMWqOhPzMXZDmdSNVnWLnuoPhGJGetqIAHH94JvmiTISMM4xUY3HNF+UXNPk0QhTbdeaA84bjLQSw/aTgghzvSacfLXBbL4zEOkyi31vY3BrHYf87JFEElT3WjqVJ2FBfrtQdsYiYC1cDTwhW+Z1Y8Tcw+R9jjZm3Jv3FnYMt/AH4zkPwCUmtEzgjQG8lvod0Zgx2mgzhsfl7YptYdpE7BLZWasrD6mSWJiLg6qVOD5zuq3sub5HZH++b2SHqnywhSKxkJ7ZITYTuVOqvykxEAH3UkAlzKX//fLzNVkwC+5maTlf9I2ZgUAmvFoFw5wMZMSqQqj2tJL14j2qnUkwcVJYle3/Q5iPU6W9My3j7C8eaComvh/1OfbGCQx6hrr7VPM20Bx0tukahK5AJ4nNekVi1RZUT9z42BWoO6RNDZBOL9Gp2uSXxwVfQQcx1HdjxcKLGSdCVkdwsjsN8ujbuvGnuG9r3rqYQCOnMmZHNJ/dbkm9cbj9045VeFf3Nc0wv2vZQgLo+s5YXyEZPwvH+9Uvc1UNKPi+sO4b223+F9XJ4I8H57uHjOiP173GSqURkjHxvX4AW88fM/6nCZds6Hb+QZNaty7sBs36jnSdLWV9nALujRuL0ZCfMEytvoNpcmzodm4cVa25B0byVs7+oP7jqRJJaSMwLT/jLgmVZ4x/6z7n+dKJmQ9jlv/mvMgOjGyzd69bNmEzdwYxfcDjuES9Ltgfby/dMJm3ojvJON4zhbdSszucHv5hIecqu2tfOP5Wy5rMUIFodkMHPnb/BpgkAJpoUJFhPROwEyvjBv+rlnKkiJ1hNSQu3YnLsm7Zd3dvqs6GxKIvDVONVlhmUvylkIbQhC3xDf8CskMNSltpdBE1WVvM5HZRokU2pBu/csvjVhZcoNpVto2TMkhJIyXS41BLdeEJl4lLYjSCEF9PmIkU7nxXgjwavHflxLJhCb62Z16RoVlB3yB6X4JpZIJoVudTTO2WHJMG5pN+g+T6b7LJSQ+eHnWSmMpM4qr95dNSHrT7IwwV7p4LZ2QvPf5GaEtTsiaG3wsaH0i5IomPrIqBMAFoeAVWN2Ay6UITk2PPc30/hWQhcVnBBDYHQnpRAxv02T0oA6R+JDjo8lngYUTCNoIha4AaU2ETaBmh5IfbIBoJnlnQqKpWAi2m0aiDkkPNnQ3CvfteMbGVWxDCLZqd7R4W9EH7EqIdp5KRM/bIcXvIVL5FlKNxNZwutvQUr3veiy20tiDDdUTKm6l/74NX4Qvwhfhi/BF+CJ8Eb4IX4Qvwhfhi/BF+CJ8Eb4IX4QvwuERCgXHr+3xGTChL3ZKwLWPKyNkKe5QICI8qUqBvdeeE5Xt2aFjdLy7ZEJa9Ifmw0w5CZ0twqjg3QnpjTKM8aItVXs8RfTGvEvVHQgBXrxT8dVSdVYuhBAVfFb0khVdsm9F/GB3XfBu5+tA6IpsFCeA7EsWX62nUcxSXMmPeO33497O14HQEiih4hSHQmcAtLa8H/KMEStwThfscXQtQ8BB8gn5dxc7hX3I9jLNu/vnPcOB4PhxYF/7QSacXao0Qj8CpwJrxyba5GC1EoYLu07YAEgAp8e9VhAOlzBYY4Bxkyn/BUizvFpb6b5EAE9n9J/eyP4CvNFKNRN+LNhZMjlFdLbuVyJTe1W5fYFYrdKZT4eJ4wMQC+L11bd2ovU9DCO7uXi+ayzYmIS4B60D4r5scueBPZuP4pMFaVd6vVvSasP5Z3MaEH2NUgJ4OhkIbdu+4y2sg38EsogNm4eP37CgZsJ9AQ7vEbGDeTIJbAc0JlnzG1DE05Z4CljeciY0E2J4HBzMe02UfDw7UsGTv0n+uNur+7K0E3pv7nkmKDPJtS9U+Dynkn48vsWnuy+dp/ZPRJrAeMNfi862IbHf406Za82jxTyF5rcsSVrv4KZDGv1ILmfDxD2HXveIP0+Becp1pe/gbY/br+yvzNg7w8RACAni1Dz1GtC9NzEMlva3jokDUD+h4VNE2PSNdwEJYoVPzvnNcXA4hBTxUHKJA5C66qxHZcMET02EARASRFZgH1icsYtFM2jcGyYGREgQ6YbpW8PET5EeFZi44CsVNAhC0t1krr3mnylHtZuvOct2DIPQmCfLd4HSRv5syV1eZiCEEvUifBE+AyHn6sPDhEB5CvtPjRFf0LuLDSudZ6MElfxWCtwqoVLNGbC7VgrWLYg7Rnc98q499aZxsxdTwdoT+7qmVe5jLEc+IbmLDkKhJ3xlKrwIn5AQCO7lfj5C0d3qQyfsXnFg+IQXNhSs/DF4QnxOmGGxDe9DJwQXtU1KwQo8AyeE5/VpWI0hIcTB7wPG5zWGEvRPtdKLOlFNrS+RS6jfj8+ZonAgvKj15dF6bSJXsJTXVBB5PthSr43V3BP5jZTXxRDoCmlS1WU4idZN5O9sNNQ24f/5iVDVknI0WYlUuIYsJKWG0WMBKG6niy7zrFojgknNX2KXXsXd+IoI/Y3F73LRda+6PU/Q35n8tRPpdfB2N3Lka7TbYqHfHsArNWhpLgXgLhxGP4YfrvXFL2QhhKFIISxgX6sjfKoFzRnrUXQCYlMWjvfDt2tBf9XzlvrI0sRRz9toarIP6twjftH0iLs12amcGB0+/1zirasv62wE2aIPzHs2wvF8i6dqqyLnWzAFy1jqgds9ixpD4IySRqOFLbOAea+CD5wzY/R+VpA8MdfjgbOCDuc9DZ6RPuCD5z0ZzZld5sARaQt99MwuqrAc0NGVl2IG7HLu2uHsPNHiqMpEH8vueHaecTj/cIiDI32izucfMgX/a86wHBojeSCrlzMsjcM5pMN6G9kb2Nc5pEZzlqxupu9iP3efZ8kazXnA5lDMyN7Afs8DpqJnOg8CkRmw/zOdjeO53PoRqZct5Vzu49nq+vlMIOlsdaL9MnO1m9HNBGo0CMtPStDb8bLCapy0P4nUWvdemNpYk4vDIk12GsoOtPvO6reOhsrCs79XjpLDCiqkwcWhW9usy0VBSRqXtnJPFZp2KVCwops8I0hjoDA2TkOhdpwGClcsDcNZKEOkbQWAhTIDHhW+ZZZAzZ8ufJCMgW8SnJi7chaWgh6HtlBLvQEbBZvabR5CGl4TrH/TtwFi8lfqhKMJFXJvZJSjTSYv4Ni8gZv7DyFX+4WskxOJb+jWC4leNrc2hYxjoNmJUsW7brhGk2Utls/DJ1BXeneRfdN8thVMwL0raOK+QoW9yAuraX9jI+tCp5X0aZKYvFGO+nFx2Bvt5m3nsmqVZ3gR6KPHod+3QXSniIsOkQdKStvuaEbYRJoSVUmBogqXGeg8OOKMIyVGm/zRukNOFeth0Hqk5lTFR7VPydj40OvYxOrrdAhOzE35Tmk9kqjCvoBKNZGmjvpIc/GcKmp2N0/56r7q17gQTVSBzInRNM99SLv6ohjbLT5aFaze6X5oAXk0xJFzZzjQSFO+doY6Bl5TsFthrnxj1kBXuwF52bzynMjm2gUCAYju5PUOVcGM7Wq8RdkkpQ1pmiQm72N9c1LFErOn64FNk0REJhyz3L1qRmbAfNM1p0mvPFru+UoWB1uNWIRPzWdQRH/GatOe9aqHadLsGZy0+9ova3xGSP8P1zIX5NXKTwrra94I2TYYgAq5C/KKNUlrhJsNPs00CdWp3mB97/InnzHCLHUMYBdlvyb/kgEPmjuff+Mcwrj85YidzNJJ/wfOMwonElS+6wAAAABJRU5ErkJggg==;" vertex="1" parent="1">
          <mxGeometry x="524" y="362.5" width="40" height="40" as="geometry" />
        </mxCell>
        <mxCell id="v_2MPb_NcIat8Og6rA1i-48" style="edgeStyle=elbowEdgeStyle;rounded=0;orthogonalLoop=1;jettySize=auto;html=1;entryX=1;entryY=0.5;entryDx=0;entryDy=0;" edge="1" parent="1" source="v_2MPb_NcIat8Og6rA1i-40" target="v_2MPb_NcIat8Og6rA1i-42">
          <mxGeometry relative="1" as="geometry" />
        </mxCell>
        <mxCell id="v_2MPb_NcIat8Og6rA1i-52" style="edgeStyle=orthogonalEdgeStyle;rounded=0;orthogonalLoop=1;jettySize=auto;html=1;entryX=1;entryY=0.5;entryDx=0;entryDy=0;" edge="1" parent="1" source="v_2MPb_NcIat8Og6rA1i-40" target="v_2MPb_NcIat8Og6rA1i-49">
          <mxGeometry relative="1" as="geometry">
            <Array as="points">
              <mxPoint x="660" y="60" />
            </Array>
          </mxGeometry>
        </mxCell>
        <mxCell id="v_2MPb_NcIat8Og6rA1i-40" value="" style="shape=image;verticalLabelPosition=bottom;labelBackgroundColor=default;verticalAlign=top;aspect=fixed;imageAspect=0;image=data:image/png,iVBORw0KGgoAAAANSUhEUgAAAQAAAAEACAYAAABccqhmAAAABHNCSVQICAgIfAhkiAAAAAlwSFlzAADsOAAA7DgBcSvKOAAAABl0RVh0U29mdHdhcmUAd3d3Lmlua3NjYXBlLm9yZ5vuPBoAAAj5SURBVHic7d3Pb1TXHYbx91wPQ1KmDRLGM3HcpkZZlUUbUVVKu2hCJVNDySbLVO0f0Uq0qlCIEFFQlf+hSZapurDCj1oyJVKyaNUINkkWkbAsIPaMi4TBFvLY5nQRLgJiYuM7njN33uez83hsffFwHo4Gn3uDNml+8NXvtgfaR6RwMEo/kfRDSbsl7djs90DvGWmeC0W+/lp9PHZqFmzJiqSbUpiW4uUgXdhx986ZofmLi5v54g1f/Om9hxs7go4rxN9L2lV0WvQWAtCXlmKMf6uqerLemmh+2xMf++J/+cL4zqcWw59DjH+QVOv4iOgJBKCvLYaov97cW3t7/2cftNd7Qrbeg18NHx18+rb+GWJ8Qyx+oKxqMejNZ/53+1/NoVfr6z3hGwGYaRzaf3dt9VNJv9z28QB0Qfj5Slj592xj/EePfuahAHw1fHRwIGYTkn7QtdkAdMPza1Fn5+pjQw8+eD8A/9WBHXfXVv8uaV/XRwPQDc+vauAfX74wvjN/4H4A6o36X8S2H+h3v3j6to7nH2TS1//Vd+/dfgD9749z9bFR6V4AdgQdF+/2Ay52rqpyTJKy1t6Xawrxd6knAtBN8betvS/XspXsqd+If/0BN7vaA985nEnhYOpJACQQdTC7d7AHgJ3440zSaOoxACSxL5P0vdRTAEjimYqkasoJip5Ggzf3vz8FT2PuXPc0IAAPBAAwRgAAYwQAMEYAAGMEADBGAABjBAAwRgAAYwQAMEYAAGMEADBGAABjBAAwRgAAY5XUAxRV9O607ufJ4Y0dAGCMAADGCABgjAAAxggAYIwAAMYIAGCMAADGCABgjAAAxggAYIwAAMYIAGCMAADGCABgrPTXA+A8P7B17AAAYwQAMEYAAGMEADBGAABjBAAwRgAAYwQAMEYAAGMEADBGAABjBAAwRgAAYwQAMEYAAGOlvx7Atfp4LPL1XE8AztgBAMYIAGCMAADGCABgjAAAxggAYIwAAMYIAGCMAADGCABgjAAAxggAYIwAAMYIAGCMAADGSn89AM7zeyt6PQh37AAAYwQAMEYAAGMEADBGAABjBAAwRgAAYwQAMEYAAGMEADBGAABjBAAwRgAAYwQAMEYAAGOlvx5A0fPgXE8graI/f/fXv+ifnx0AYIwAAMYIAGCMAADGCABgjAAAxggAYIwAAMYIAGCMAADGCABgjAAAxggAYIwAAMYIAGAspL6/etnPY7u7Vh9fllRNPQe2ZJkdAIq6lXoAbNkCAUBR06kHwJZdIQAo6lLqAbBFQZcJAAoJ0oXUM2DLpggAChnQ2oeSFlPPgSe2VF27c54AoJBGc3Ipxvhu6jnwhILeG5q/uEgAUFhV1ZOSbqeeA5u2nIVwWuIXgdAB9dZEM8T4Tuo5sDkx6PTw7NkZiQCgQ2Zb829J+ij1HNhA0Me39tRO5R8SAHTET/Xpiirt1yRdST0LHmumEtde2//ZB+38AQKAjhm5PnVjIOiopJnUs+BhUWE6y7LxRnOy9eDjBAAd9ezcuc9VaR+QdDH1LLjvk2qsvDQ8e+aLRz9BANBxI9enbiwM1g5JOiWpvdHzsW2WFXRyYbB2sN6aaK73BE4DYlvN1cdGV1U5JsXXJdVSz2NiUUHvZyHcf7f/cQgAumKuPrZrNVSOSPEVRb0oaVTSbnGUuKi2pJuSphV0SYoXKvHu2UZzcmkzX1z6ALjfH94dr38xvAcAGCMAgDECABgjAIAxAgAYIwCAMQIAGCMAgDECABgjAIAxAgAYIwCAMQIAGCMAgDECABgr/fUAAGwdOwDAGAEAjBEAwBgBAIwRAMAYAQCMEQDAGAEAjBEAwBgBAIwRAMAYAQCMEQDAGAEAjBEAwFjy6wEAKblfj4IdAGCMAADGCABgjAAAxggAYIwAAMYIAGCMAADGCABgjAAAxggAYIwAAMYIAGCMAADGCABgrFL0G7ifp0ZaXM+iGHYAgDECABgjAIAxAgAYIwCAMQIAGCMAgDECABgjAIAxAgAYIwCAMQIAGCMAgDECABgjAICxwtcDSK3s58G5ngJSYgcAGCMAgDECABgjAIAxAgAYIwCAMQIAGCMAgDECABgjAIAxAgAYIwCAMQIAGCMAgDECABirSGpLqm71G5T9PH5q/PySWk49QGqZpFuphwASWUg9QGqZpOnUQwCJXEk9QGqZpEuphwCSCLqceoTUsiBdSD0EkMhU6gFSywa09qGkxdSDAF22VF27cz71EKlljebkUozx3dSDAF0V9N7Q/EX7f/gySaqqelLS7cSzAN2ynIVwOvUQvSCTpHprohlifCf1MEA3xKDTw7NnZ1LP0Qvu/ybgbGv+LUkfJZwF2H5BH9/aUzuVeoxe8dBdaa4996s9Wq3+R9K+RPMA22mmorWfNZqTrdSD9IqHzgKMXJ+6MRB0VBLbI/SVqDCdZdk4i/9h3zgM9Ozcuc9VaR+QdLH74wDb4pNqrLw0PHvmi9SD9Jp1TwOOXJ+6sTBYOyTplL4+LASU0bKCTi4M1g7WWxPN1MP0og3vTDtXHxtdVeWYFF+XVOvCTEBRiwp6PwuBd/s3sOlbU8/Vx3athsoRKb6iqBcljUrarQJHiYEOaEu6KWlaQZekeKES755tNCeXUg9WBqW/N33Zz9OPNM+V/jVAeXFFIMAYAQCMEQDAGAEAjBEAwBgBAIwRAMAYAfgWIcYTMehPqecAtksl9QC9KsR44rnW+Tcl6WpjXCHq7dQzAZ3GDmAdDy5+Sfr+3LnT7ATQjwjAIx5d/DkigH5EAB7wuMWfIwLoNwTgno0Wf44IoJ8QAG1+8eeIAPqFfQCedPHniAD6gXUAtrr4c0QAZWcbgKKLP0cEUGaWAejU4s8RAZSVXQA6vfhzRABlZBWA7Vr8OSKAsrEJwHYv/hwRQJlYBKBbiz9HBFAWfR+Abi/+HBFAGfR1AFIt/hwRQK/r2wCkXvw5IoBe1pcB6JXFnyMC6FV9F4BeW/w5IoBe1FcB6NXFnyMC6DV9E4BeX/w5IgB00LX6eLw+9Os3Us/xpK42xo+V/c7GQHJXG4dPpJ5hq8o8O/rD/wESrlYpmKuPdgAAAABJRU5ErkJggg==;" vertex="1" parent="1">
          <mxGeometry x="630" y="200" width="80" height="80" as="geometry" />
        </mxCell>
        <mxCell id="v_2MPb_NcIat8Og6rA1i-42" value="" style="shape=image;verticalLabelPosition=bottom;labelBackgroundColor=default;verticalAlign=top;aspect=fixed;imageAspect=0;image=data:image/png,iVBORw0KGgoAAAANSUhEUgAAAOEAAADhCAMAAAAJbSJIAAAAkFBMVEX///8QXowAWYoNXo0AX43M2eLAz9vS3eUQX4vX4ekAW4ytwdH7/f4AWIoAXY75+/x0mLPw9fjm7fIAU4erw9N1nbinvM3y9/qgt8kuc5u5zNno7fKSssgscJsAZpRnkrCHqcFFgKZQiauHrcVAeqBgkLClwtN7psAAWI1Vg6RCgKWVtcqJrsZRi6waa5jc6fDnQ+JvAAAMi0lEQVR4nO2dgZKiuhKGgYBGLgkHlHFgAIVV2dVZfP+3u0lQZ0ZREyEJbvlXnak9VQp8dkg6nU7HMFTJmzuff2Nowrj85cw9ZfdVJX/yK0MYA2CaALvT7HPi636kfjVJa4RNCE0i+gejOp3ofqge5ScFAoyuIYQQQICK5J8x42RZYwhPhAdMAOrlXvej9SDP8GcFpkg/CWlbtUExe3ozekb4nw0OL595wQjsRWg8c7fqGd4sdy/ZvhBNN595T8zofaynAF400B+IYLr+eFrCYJbhyxfwghFns0D3oz4kz4ls3P4GnlECEDlPaMZgt8LgtgGPZoQmXu2ey4zEIM6adjH3+RgjJB3O2jGeqsfZkTGex4BfwvVO90MLaPyH8HEa8FtTLca6H5xTHykbA0UAG2fVtdMP3Q/PId8pkXlnjGhHJLJKZ/BuXJjWFhR8BQ+I5FvArdNQN8JNeaM1sgVfwTNGtB4N2IzhMgPgAfN9g6QuznKYZiRjWVJem0aImJG4qkUywLGRTBAiGoTpZMGDFakb5w8O0RvlyHz4DTwzIzRRPhoWoRdWU9CZ7cRIzTitwgExzhMWqOhPzMXZDmdSNVnWLnuoPhGJGetqIAHH94JvmiTISMM4xUY3HNF+UXNPk0QhTbdeaA84bjLQSw/aTgghzvSacfLXBbL4zEOkyi31vY3BrHYf87JFEElT3WjqVJ2FBfrtQdsYiYC1cDTwhW+Z1Y8Tcw+R9jjZm3Jv3FnYMt/AH4zkPwCUmtEzgjQG8lvod0Zgx2mgzhsfl7YptYdpE7BLZWasrD6mSWJiLg6qVOD5zuq3sub5HZH++b2SHqnywhSKxkJ7ZITYTuVOqvykxEAH3UkAlzKX//fLzNVkwC+5maTlf9I2ZgUAmvFoFw5wMZMSqQqj2tJL14j2qnUkwcVJYle3/Q5iPU6W9My3j7C8eaComvh/1OfbGCQx6hrr7VPM20Bx0tukahK5AJ4nNekVi1RZUT9z42BWoO6RNDZBOL9Gp2uSXxwVfQQcx1HdjxcKLGSdCVkdwsjsN8ujbuvGnuG9r3rqYQCOnMmZHNJ/dbkm9cbj9045VeFf3Nc0wv2vZQgLo+s5YXyEZPwvH+9Uvc1UNKPi+sO4b223+F9XJ4I8H57uHjOiP173GSqURkjHxvX4AW88fM/6nCZds6Hb+QZNaty7sBs36jnSdLWV9nALujRuL0ZCfMEytvoNpcmzodm4cVa25B0byVs7+oP7jqRJJaSMwLT/jLgmVZ4x/6z7n+dKJmQ9jlv/mvMgOjGyzd69bNmEzdwYxfcDjuES9Ltgfby/dMJm3ojvJON4zhbdSszucHv5hIecqu2tfOP5Wy5rMUIFodkMHPnb/BpgkAJpoUJFhPROwEyvjBv+rlnKkiJ1hNSQu3YnLsm7Zd3dvqs6GxKIvDVONVlhmUvylkIbQhC3xDf8CskMNSltpdBE1WVvM5HZRokU2pBu/csvjVhZcoNpVto2TMkhJIyXS41BLdeEJl4lLYjSCEF9PmIkU7nxXgjwavHflxLJhCb62Z16RoVlB3yB6X4JpZIJoVudTTO2WHJMG5pN+g+T6b7LJSQ+eHnWSmMpM4qr95dNSHrT7IwwV7p4LZ2QvPf5GaEtTsiaG3wsaH0i5IomPrIqBMAFoeAVWN2Ay6UITk2PPc30/hWQhcVnBBDYHQnpRAxv02T0oA6R+JDjo8lngYUTCNoIha4AaU2ETaBmh5IfbIBoJnlnQqKpWAi2m0aiDkkPNnQ3CvfteMbGVWxDCLZqd7R4W9EH7EqIdp5KRM/bIcXvIVL5FlKNxNZwutvQUr3veiy20tiDDdUTKm6l/74NX4Qvwhfhi/BF+CJ8Eb4IX4Qvwhfhi/BF+CJ8Eb4IX4QvwuERCgXHr+3xGTChL3ZKwLWPKyNkKe5QICI8qUqBvdeeE5Xt2aFjdLy7ZEJa9Ifmw0w5CZ0twqjg3QnpjTKM8aItVXs8RfTGvEvVHQgBXrxT8dVSdVYuhBAVfFb0khVdsm9F/GB3XfBu5+tA6IpsFCeA7EsWX62nUcxSXMmPeO33497O14HQEiih4hSHQmcAtLa8H/KMEStwThfscXQtQ8BB8gn5dxc7hX3I9jLNu/vnPcOB4PhxYF/7QSacXao0Qj8CpwJrxyba5GC1EoYLu07YAEgAp8e9VhAOlzBYY4Bxkyn/BUizvFpb6b5EAE9n9J/eyP4CvNFKNRN+LNhZMjlFdLbuVyJTe1W5fYFYrdKZT4eJ4wMQC+L11bd2ovU9DCO7uXi+ayzYmIS4B60D4r5scueBPZuP4pMFaVd6vVvSasP5Z3MaEH2NUgJ4OhkIbdu+4y2sg38EsogNm4eP37CgZsJ9AQ7vEbGDeTIJbAc0JlnzG1DE05Z4CljeciY0E2J4HBzMe02UfDw7UsGTv0n+uNur+7K0E3pv7nkmKDPJtS9U+Dynkn48vsWnuy+dp/ZPRJrAeMNfi862IbHf406Za82jxTyF5rcsSVrv4KZDGv1ILmfDxD2HXveIP0+Becp1pe/gbY/br+yvzNg7w8RACAni1Dz1GtC9NzEMlva3jokDUD+h4VNE2PSNdwEJYoVPzvnNcXA4hBTxUHKJA5C66qxHZcMET02EARASRFZgH1icsYtFM2jcGyYGREgQ6YbpW8PET5EeFZi44CsVNAhC0t1krr3mnylHtZuvOct2DIPQmCfLd4HSRv5syV1eZiCEEvUifBE+AyHn6sPDhEB5CvtPjRFf0LuLDSudZ6MElfxWCtwqoVLNGbC7VgrWLYg7Rnc98q499aZxsxdTwdoT+7qmVe5jLEc+IbmLDkKhJ3xlKrwIn5AQCO7lfj5C0d3qQyfsXnFg+IQXNhSs/DF4QnxOmGGxDe9DJwQXtU1KwQo8AyeE5/VpWI0hIcTB7wPG5zWGEvRPtdKLOlFNrS+RS6jfj8+ZonAgvKj15dF6bSJXsJTXVBB5PthSr43V3BP5jZTXxRDoCmlS1WU4idZN5O9sNNQ24f/5iVDVknI0WYlUuIYsJKWG0WMBKG6niy7zrFojgknNX2KXXsXd+IoI/Y3F73LRda+6PU/Q35n8tRPpdfB2N3Lka7TbYqHfHsArNWhpLgXgLhxGP4YfrvXFL2QhhKFIISxgX6sjfKoFzRnrUXQCYlMWjvfDt2tBf9XzlvrI0sRRz9toarIP6twjftH0iLs12amcGB0+/1zirasv62wE2aIPzHs2wvF8i6dqqyLnWzAFy1jqgds9ixpD4IySRqOFLbOAea+CD5wzY/R+VpA8MdfjgbOCDuc9DZ6RPuCD5z0ZzZld5sARaQt99MwuqrAc0NGVl2IG7HLu2uHsPNHiqMpEH8vueHaecTj/cIiDI32izucfMgX/a86wHBojeSCrlzMsjcM5pMN6G9kb2Nc5pEZzlqxupu9iP3efZ8kazXnA5lDMyN7Afs8DpqJnOg8CkRmw/zOdjeO53PoRqZct5Vzu49nq+vlMIOlsdaL9MnO1m9HNBGo0CMtPStDb8bLCapy0P4nUWvdemNpYk4vDIk12GsoOtPvO6reOhsrCs79XjpLDCiqkwcWhW9usy0VBSRqXtnJPFZp2KVCwops8I0hjoDA2TkOhdpwGClcsDcNZKEOkbQWAhTIDHhW+ZZZAzZ8ufJCMgW8SnJi7chaWgh6HtlBLvQEbBZvabR5CGl4TrH/TtwFi8lfqhKMJFXJvZJSjTSYv4Ni8gZv7DyFX+4WskxOJb+jWC4leNrc2hYxjoNmJUsW7brhGk2Utls/DJ1BXeneRfdN8thVMwL0raOK+QoW9yAuraX9jI+tCp5X0aZKYvFGO+nFx2Bvt5m3nsmqVZ3gR6KPHod+3QXSniIsOkQdKStvuaEbYRJoSVUmBogqXGeg8OOKMIyVGm/zRukNOFeth0Hqk5lTFR7VPydj40OvYxOrrdAhOzE35Tmk9kqjCvoBKNZGmjvpIc/GcKmp2N0/56r7q17gQTVSBzInRNM99SLv6ohjbLT5aFaze6X5oAXk0xJFzZzjQSFO+doY6Bl5TsFthrnxj1kBXuwF52bzynMjm2gUCAYju5PUOVcGM7Wq8RdkkpQ1pmiQm72N9c1LFErOn64FNk0REJhyz3L1qRmbAfNM1p0mvPFru+UoWB1uNWIRPzWdQRH/GatOe9aqHadLsGZy0+9ova3xGSP8P1zIX5NXKTwrra94I2TYYgAq5C/KKNUlrhJsNPs00CdWp3mB97/InnzHCLHUMYBdlvyb/kgEPmjuff+Mcwrj85YidzNJJ/wfOMwonElS+6wAAAABJRU5ErkJggg==;" vertex="1" parent="1">
          <mxGeometry x="500" y="160" width="40" height="40" as="geometry" />
        </mxCell>
        <mxCell id="v_2MPb_NcIat8Og6rA1i-49" value="" style="shape=image;verticalLabelPosition=bottom;labelBackgroundColor=default;verticalAlign=top;aspect=fixed;imageAspect=0;image=data:image/png,iVBORw0KGgoAAAANSUhEUgAAAOEAAADhCAMAAAAJbSJIAAAAkFBMVEX///8QXowAWYoNXo0AX43M2eLAz9vS3eUQX4vX4ekAW4ytwdH7/f4AWIoAXY75+/x0mLPw9fjm7fIAU4erw9N1nbinvM3y9/qgt8kuc5u5zNno7fKSssgscJsAZpRnkrCHqcFFgKZQiauHrcVAeqBgkLClwtN7psAAWI1Vg6RCgKWVtcqJrsZRi6waa5jc6fDnQ+JvAAAMi0lEQVR4nO2dgZKiuhKGgYBGLgkHlHFgAIVV2dVZfP+3u0lQZ0ZREyEJbvlXnak9VQp8dkg6nU7HMFTJmzuff2Nowrj85cw9ZfdVJX/yK0MYA2CaALvT7HPi636kfjVJa4RNCE0i+gejOp3ofqge5ScFAoyuIYQQQICK5J8x42RZYwhPhAdMAOrlXvej9SDP8GcFpkg/CWlbtUExe3ozekb4nw0OL595wQjsRWg8c7fqGd4sdy/ZvhBNN595T8zofaynAF400B+IYLr+eFrCYJbhyxfwghFns0D3oz4kz4ls3P4GnlECEDlPaMZgt8LgtgGPZoQmXu2ey4zEIM6adjH3+RgjJB3O2jGeqsfZkTGex4BfwvVO90MLaPyH8HEa8FtTLca6H5xTHykbA0UAG2fVtdMP3Q/PId8pkXlnjGhHJLJKZ/BuXJjWFhR8BQ+I5FvArdNQN8JNeaM1sgVfwTNGtB4N2IzhMgPgAfN9g6QuznKYZiRjWVJem0aImJG4qkUywLGRTBAiGoTpZMGDFakb5w8O0RvlyHz4DTwzIzRRPhoWoRdWU9CZ7cRIzTitwgExzhMWqOhPzMXZDmdSNVnWLnuoPhGJGetqIAHH94JvmiTISMM4xUY3HNF+UXNPk0QhTbdeaA84bjLQSw/aTgghzvSacfLXBbL4zEOkyi31vY3BrHYf87JFEElT3WjqVJ2FBfrtQdsYiYC1cDTwhW+Z1Y8Tcw+R9jjZm3Jv3FnYMt/AH4zkPwCUmtEzgjQG8lvod0Zgx2mgzhsfl7YptYdpE7BLZWasrD6mSWJiLg6qVOD5zuq3sub5HZH++b2SHqnywhSKxkJ7ZITYTuVOqvykxEAH3UkAlzKX//fLzNVkwC+5maTlf9I2ZgUAmvFoFw5wMZMSqQqj2tJL14j2qnUkwcVJYle3/Q5iPU6W9My3j7C8eaComvh/1OfbGCQx6hrr7VPM20Bx0tukahK5AJ4nNekVi1RZUT9z42BWoO6RNDZBOL9Gp2uSXxwVfQQcx1HdjxcKLGSdCVkdwsjsN8ujbuvGnuG9r3rqYQCOnMmZHNJ/dbkm9cbj9045VeFf3Nc0wv2vZQgLo+s5YXyEZPwvH+9Uvc1UNKPi+sO4b223+F9XJ4I8H57uHjOiP173GSqURkjHxvX4AW88fM/6nCZds6Hb+QZNaty7sBs36jnSdLWV9nALujRuL0ZCfMEytvoNpcmzodm4cVa25B0byVs7+oP7jqRJJaSMwLT/jLgmVZ4x/6z7n+dKJmQ9jlv/mvMgOjGyzd69bNmEzdwYxfcDjuES9Ltgfby/dMJm3ojvJON4zhbdSszucHv5hIecqu2tfOP5Wy5rMUIFodkMHPnb/BpgkAJpoUJFhPROwEyvjBv+rlnKkiJ1hNSQu3YnLsm7Zd3dvqs6GxKIvDVONVlhmUvylkIbQhC3xDf8CskMNSltpdBE1WVvM5HZRokU2pBu/csvjVhZcoNpVto2TMkhJIyXS41BLdeEJl4lLYjSCEF9PmIkU7nxXgjwavHflxLJhCb62Z16RoVlB3yB6X4JpZIJoVudTTO2WHJMG5pN+g+T6b7LJSQ+eHnWSmMpM4qr95dNSHrT7IwwV7p4LZ2QvPf5GaEtTsiaG3wsaH0i5IomPrIqBMAFoeAVWN2Ay6UITk2PPc30/hWQhcVnBBDYHQnpRAxv02T0oA6R+JDjo8lngYUTCNoIha4AaU2ETaBmh5IfbIBoJnlnQqKpWAi2m0aiDkkPNnQ3CvfteMbGVWxDCLZqd7R4W9EH7EqIdp5KRM/bIcXvIVL5FlKNxNZwutvQUr3veiy20tiDDdUTKm6l/74NX4Qvwhfhi/BF+CJ8Eb4IX4Qvwhfhi/BF+CJ8Eb4IX4QvwuERCgXHr+3xGTChL3ZKwLWPKyNkKe5QICI8qUqBvdeeE5Xt2aFjdLy7ZEJa9Ifmw0w5CZ0twqjg3QnpjTKM8aItVXs8RfTGvEvVHQgBXrxT8dVSdVYuhBAVfFb0khVdsm9F/GB3XfBu5+tA6IpsFCeA7EsWX62nUcxSXMmPeO33497O14HQEiih4hSHQmcAtLa8H/KMEStwThfscXQtQ8BB8gn5dxc7hX3I9jLNu/vnPcOB4PhxYF/7QSacXao0Qj8CpwJrxyba5GC1EoYLu07YAEgAp8e9VhAOlzBYY4Bxkyn/BUizvFpb6b5EAE9n9J/eyP4CvNFKNRN+LNhZMjlFdLbuVyJTe1W5fYFYrdKZT4eJ4wMQC+L11bd2ovU9DCO7uXi+ayzYmIS4B60D4r5scueBPZuP4pMFaVd6vVvSasP5Z3MaEH2NUgJ4OhkIbdu+4y2sg38EsogNm4eP37CgZsJ9AQ7vEbGDeTIJbAc0JlnzG1DE05Z4CljeciY0E2J4HBzMe02UfDw7UsGTv0n+uNur+7K0E3pv7nkmKDPJtS9U+Dynkn48vsWnuy+dp/ZPRJrAeMNfi862IbHf406Za82jxTyF5rcsSVrv4KZDGv1ILmfDxD2HXveIP0+Becp1pe/gbY/br+yvzNg7w8RACAni1Dz1GtC9NzEMlva3jokDUD+h4VNE2PSNdwEJYoVPzvnNcXA4hBTxUHKJA5C66qxHZcMET02EARASRFZgH1icsYtFM2jcGyYGREgQ6YbpW8PET5EeFZi44CsVNAhC0t1krr3mnylHtZuvOct2DIPQmCfLd4HSRv5syV1eZiCEEvUifBE+AyHn6sPDhEB5CvtPjRFf0LuLDSudZ6MElfxWCtwqoVLNGbC7VgrWLYg7Rnc98q499aZxsxdTwdoT+7qmVe5jLEc+IbmLDkKhJ3xlKrwIn5AQCO7lfj5C0d3qQyfsXnFg+IQXNhSs/DF4QnxOmGGxDe9DJwQXtU1KwQo8AyeE5/VpWI0hIcTB7wPG5zWGEvRPtdKLOlFNrS+RS6jfj8+ZonAgvKj15dF6bSJXsJTXVBB5PthSr43V3BP5jZTXxRDoCmlS1WU4idZN5O9sNNQ24f/5iVDVknI0WYlUuIYsJKWG0WMBKG6niy7zrFojgknNX2KXXsXd+IoI/Y3F73LRda+6PU/Q35n8tRPpdfB2N3Lka7TbYqHfHsArNWhpLgXgLhxGP4YfrvXFL2QhhKFIISxgX6sjfKoFzRnrUXQCYlMWjvfDt2tBf9XzlvrI0sRRz9toarIP6twjftH0iLs12amcGB0+/1zirasv62wE2aIPzHs2wvF8i6dqqyLnWzAFy1jqgds9ixpD4IySRqOFLbOAea+CD5wzY/R+VpA8MdfjgbOCDuc9DZ6RPuCD5z0ZzZld5sARaQt99MwuqrAc0NGVl2IG7HLu2uHsPNHiqMpEH8vueHaecTj/cIiDI32izucfMgX/a86wHBojeSCrlzMsjcM5pMN6G9kb2Nc5pEZzlqxupu9iP3efZ8kazXnA5lDMyN7Afs8DpqJnOg8CkRmw/zOdjeO53PoRqZct5Vzu49nq+vlMIOlsdaL9MnO1m9HNBGo0CMtPStDb8bLCapy0P4nUWvdemNpYk4vDIk12GsoOtPvO6reOhsrCs79XjpLDCiqkwcWhW9usy0VBSRqXtnJPFZp2KVCwops8I0hjoDA2TkOhdpwGClcsDcNZKEOkbQWAhTIDHhW+ZZZAzZ8ufJCMgW8SnJi7chaWgh6HtlBLvQEbBZvabR5CGl4TrH/TtwFi8lfqhKMJFXJvZJSjTSYv4Ni8gZv7DyFX+4WskxOJb+jWC4leNrc2hYxjoNmJUsW7brhGk2Utls/DJ1BXeneRfdN8thVMwL0raOK+QoW9yAuraX9jI+tCp5X0aZKYvFGO+nFx2Bvt5m3nsmqVZ3gR6KPHod+3QXSniIsOkQdKStvuaEbYRJoSVUmBogqXGeg8OOKMIyVGm/zRukNOFeth0Hqk5lTFR7VPydj40OvYxOrrdAhOzE35Tmk9kqjCvoBKNZGmjvpIc/GcKmp2N0/56r7q17gQTVSBzInRNM99SLv6ohjbLT5aFaze6X5oAXk0xJFzZzjQSFO+doY6Bl5TsFthrnxj1kBXuwF52bzynMjm2gUCAYju5PUOVcGM7Wq8RdkkpQ1pmiQm72N9c1LFErOn64FNk0REJhyz3L1qRmbAfNM1p0mvPFru+UoWB1uNWIRPzWdQRH/GatOe9aqHadLsGZy0+9ova3xGSP8P1zIX5NXKTwrra94I2TYYgAq5C/KKNUlrhJsNPs00CdWp3mB97/InnzHCLHUMYBdlvyb/kgEPmjuff+Mcwrj85YidzNJJ/wfOMwonElS+6wAAAABJRU5ErkJggg==;" vertex="1" parent="1">
          <mxGeometry x="500" y="40" width="40" height="40" as="geometry" />
        </mxCell>
        <mxCell id="v_2MPb_NcIat8Og6rA1i-53" value="Dependabot Alert" style="text;html=1;align=center;verticalAlign=middle;resizable=0;points=[];autosize=1;strokeColor=none;fillColor=none;" vertex="1" parent="1">
          <mxGeometry x="465" y="210" width="110" height="20" as="geometry" />
        </mxCell>
        <mxCell id="v_2MPb_NcIat8Og6rA1i-54" value="Dependabot security Update" style="text;html=1;align=center;verticalAlign=middle;resizable=0;points=[];autosize=1;strokeColor=none;fillColor=none;" vertex="1" parent="1">
          <mxGeometry x="435" y="80" width="170" height="20" as="geometry" />
        </mxCell>
        <mxCell id="v_2MPb_NcIat8Og6rA1i-55" value="" style="shape=image;verticalLabelPosition=bottom;labelBackgroundColor=default;verticalAlign=top;aspect=fixed;imageAspect=0;image=data:image/png,iVBORw0KGgoAAAANSUhEUgAAAEAAAABACAYAAACqaXHeAAAACXBIWXMAAAsSAAALEgHS3X78AAADnklEQVR42u1aW4hNYRTes8+ZYSK3aFC8iIQOhRelyCUkDyJNTXigDImR8iAPkvthanIfDM2DkvKEmHiRTLnNy7y4RTKaBiEct3Gsv/OtrP72nHGcfc7e+z//V1/7nLVv/1rrX/9a6z/HcSwsLCwsLCwsLCzyQYzo4rOL7yWDshzlRmIhsYl4jdhMXFpKhjhITHuwsUCzLQaWBR3zCiuFwleIdcSLQrZZuz4fxb0UdoP2/m0o2qzJ6yFv90l5xgRiDbGaOCboMOtH7ISic4VMYTLkX4lVeQyS7+lDPEP8KWZXipgM0vtqUE8wmFWQxXFcBHkXcZAPBpBh9ZT4QnxvCCIc+GUnMYjHxBmQK+8/gvxSHsrzO+YJZTdBXkHcBVk3MVFsI7BCo4kdGMhv4ksxTT8iZv93YDybWNGrHtc8xLkN2j1FnQXjibdgAPbUXeLUPL3Ci+cBPPOcCD1W9AbO1QVhAF25YxjMBZ/SlJ5q3yK8GLOI33FuTpBpsQLHPRjMCZ+9UYl0qp79Bin2KPE9ZDfD0AjJqdroozf4GROx+uvVZitxRNAlNxtgfwEMIJ+jYv8I3vGNuF4o7YZhBhTKADLMVuMdr8NUDhfDAPysy3hHS5g6zUIboBzH6cQfeMdWn5qsUBvAFZlkILFNZIJhJswAbnFdwbiHVxNC+TS6wdB4P1cDxHIYeAKNzheh/PawLHy5GiDmMb0HE8cSJxGnERcQ1xIPo5SWre870XGGDtkM4GpxOh9ebYVSKSxs3T1sq3Xi+lFh9HxvBigX1ywn3utBSaby+Ae00k3I+VVZZlFoDXBKnBuCPQGpaBum+RriEkz92cQpWN3jHuES6p1l3QBn8X0cNkpY8TtOZvv8XzzJP65EYktdN0ADFrhXQvkdHvdwynN7WC8iA70bPE+8LraraqIQx34YIAmlPwvPrxN7A8b+QsQGOCRaVXU8bbLXsxkgjfjPZzs88gao9XlbLBIG4B9JVerr75QQuOLbp1WCJeF9WZsntUIotLW738qrcvc46nhOg6oWGGmyEXhlH0B8IBa/T+KzWguGm5oJeOHb6/zdpV1GHEpcTHyuNUZGzgK1+LVrFR+jGvIOkzOCUqwLis6ETP+DRMrkMFAK3Yei9dq5nZCrUOhrcvGzBYr+QryvQDvM/cDuUkiH+o4Ps0V438h+QCq10cn8Y+yZk9nR3SYqRKObIV25yl7OG98QOaWyB2BhYWFhYWERffwBlKkKJt/fDGkAAAAASUVORK5CYII=;" vertex="1" parent="1">
          <mxGeometry x="403" y="60" width="22" height="22" as="geometry" />
        </mxCell>
        <mxCell id="v_2MPb_NcIat8Og6rA1i-56" value="" style="shape=image;verticalLabelPosition=bottom;labelBackgroundColor=default;verticalAlign=top;aspect=fixed;imageAspect=0;image=data:image/png,iVBORw0KGgoAAAANSUhEUgAAAEAAAABACAYAAACqaXHeAAAACXBIWXMAAAsSAAALEgHS3X78AAADnklEQVR42u1aW4hNYRTes8+ZYSK3aFC8iIQOhRelyCUkDyJNTXigDImR8iAPkvthanIfDM2DkvKEmHiRTLnNy7y4RTKaBiEct3Gsv/OtrP72nHGcfc7e+z//V1/7nLVv/1rrX/9a6z/HcSwsLCwsLCwsLCzyQYzo4rOL7yWDshzlRmIhsYl4jdhMXFpKhjhITHuwsUCzLQaWBR3zCiuFwleIdcSLQrZZuz4fxb0UdoP2/m0o2qzJ6yFv90l5xgRiDbGaOCboMOtH7ISic4VMYTLkX4lVeQyS7+lDPEP8KWZXipgM0vtqUE8wmFWQxXFcBHkXcZAPBpBh9ZT4QnxvCCIc+GUnMYjHxBmQK+8/gvxSHsrzO+YJZTdBXkHcBVk3MVFsI7BCo4kdGMhv4ksxTT8iZv93YDybWNGrHtc8xLkN2j1FnQXjibdgAPbUXeLUPL3Ci+cBPPOcCD1W9AbO1QVhAF25YxjMBZ/SlJ5q3yK8GLOI33FuTpBpsQLHPRjMCZ+9UYl0qp79Bin2KPE9ZDfD0AjJqdroozf4GROx+uvVZitxRNAlNxtgfwEMIJ+jYv8I3vGNuF4o7YZhBhTKADLMVuMdr8NUDhfDAPysy3hHS5g6zUIboBzH6cQfeMdWn5qsUBvAFZlkILFNZIJhJswAbnFdwbiHVxNC+TS6wdB4P1cDxHIYeAKNzheh/PawLHy5GiDmMb0HE8cSJxGnERcQ1xIPo5SWre870XGGDtkM4GpxOh9ebYVSKSxs3T1sq3Xi+lFh9HxvBigX1ywn3utBSaby+Ae00k3I+VVZZlFoDXBKnBuCPQGpaBum+RriEkz92cQpWN3jHuES6p1l3QBn8X0cNkpY8TtOZvv8XzzJP65EYktdN0ADFrhXQvkdHvdwynN7WC8iA70bPE+8LraraqIQx34YIAmlPwvPrxN7A8b+QsQGOCRaVXU8bbLXsxkgjfjPZzs88gao9XlbLBIG4B9JVerr75QQuOLbp1WCJeF9WZsntUIotLW738qrcvc46nhOg6oWGGmyEXhlH0B8IBa/T+KzWguGm5oJeOHb6/zdpV1GHEpcTHyuNUZGzgK1+LVrFR+jGvIOkzOCUqwLis6ETP+DRMrkMFAK3Yei9dq5nZCrUOhrcvGzBYr+QryvQDvM/cDuUkiH+o4Ps0V438h+QCq10cn8Y+yZk9nR3SYqRKObIV25yl7OG98QOaWyB2BhYWFhYWERffwBlKkKJt/fDGkAAAAASUVORK5CYII=;" vertex="1" parent="1">
          <mxGeometry x="403" y="100" width="22" height="22" as="geometry" />
        </mxCell>
        <mxCell id="v_2MPb_NcIat8Og6rA1i-60" value="Sending Alert&amp;nbsp;" style="curved=1;endArrow=classic;html=1;rounded=0;entryX=1;entryY=0;entryDx=0;entryDy=0;" edge="1" parent="1" target="v_2MPb_NcIat8Og6rA1i-9">
          <mxGeometry width="50" height="50" relative="1" as="geometry">
            <mxPoint x="490" y="190" as="sourcePoint" />
            <mxPoint x="450" y="230" as="targetPoint" />
            <Array as="points">
              <mxPoint x="450" y="190" />
              <mxPoint x="400" y="230" />
            </Array>
          </mxGeometry>
        </mxCell>
        <mxCell id="v_2MPb_NcIat8Og6rA1i-63" value="" style="shape=image;verticalLabelPosition=bottom;labelBackgroundColor=default;verticalAlign=top;aspect=fixed;imageAspect=0;image=data:image/png,iVBORw0KGgoAAAANSUhEUgAAADAAAAAwCAYAAABXAvmHAAAACXBIWXMAAAsTAAALEwEAmpwYAAAB4klEQVRo3u2ZyWrDMBCG5VCS+lYKvfTQQqGPFwo2gfTQ5VbIpY+UhNJDII4v7qMkgW7puIyD4lrSWJK3ooEfgi1+z6fFkUeM1Rf3oB7raDyAvtoA4KHKJr9rEsAHhaAItEVFeM0nJt8YwAUo4ZLI6w10SUi+EQA/l/wcez3E3zyEr0g+AzhCiFpAAu7h44L7Y+5+qEieh8i0BsWgJ9BVFQBLrudFkY1EREhepnfQBDSwCbAt6N18hNgmbfuomTyvF9CJLYANmgY1AqR6BR3bAFig4YwwhZaGUyivZxsAQ85wpFjENxqLWAbwAbo2BUgX1IozneJ0yr9G44LFR3mNnmG7TwHExMYonHNvoyJF2Mbkj+xW4B3bWswDwZB/g/oWthKnAoC1LYCeBICysVNt5jz02lW19TAFUG2nOwGQxl3XAWTfGA7AATgAB+AAHIADcAAOwAH8UwCTT0pK9CUAxpU6k4/6xv3zZRVRdXql2VNV+x8UtlTV6WEL/felRUp1etFC/31xl1Kd3rTQn1ReDwwekPlTq9+lg3LAMWWH1Wkd/zLV71KhOmIacfcDQ39V9VvHX3rIN+OuJ0x93ErxF1W/df1/Q3XMmmCbtvrveypgegfdbfD/s/HyWHVRtb8L6/EDuiNNgMsKCQoAAAAASUVORK5CYII=;" vertex="1" parent="1">
          <mxGeometry x="340" y="170" width="20" height="20" as="geometry" />
        </mxCell>
        <mxCell id="v_2MPb_NcIat8Og6rA1i-64" value="" style="shape=image;verticalLabelPosition=bottom;labelBackgroundColor=default;verticalAlign=top;aspect=fixed;imageAspect=0;image=data:image/png,iVBORw0KGgoAAAANSUhEUgAAADAAAAAwCAYAAABXAvmHAAAACXBIWXMAAAsTAAALEwEAmpwYAAAB4klEQVRo3u2ZyWrDMBCG5VCS+lYKvfTQQqGPFwo2gfTQ5VbIpY+UhNJDII4v7qMkgW7puIyD4lrSWJK3ooEfgi1+z6fFkUeM1Rf3oB7raDyAvtoA4KHKJr9rEsAHhaAItEVFeM0nJt8YwAUo4ZLI6w10SUi+EQA/l/wcez3E3zyEr0g+AzhCiFpAAu7h44L7Y+5+qEieh8i0BsWgJ9BVFQBLrudFkY1EREhepnfQBDSwCbAt6N18hNgmbfuomTyvF9CJLYANmgY1AqR6BR3bAFig4YwwhZaGUyivZxsAQ85wpFjENxqLWAbwAbo2BUgX1IozneJ0yr9G44LFR3mNnmG7TwHExMYonHNvoyJF2Mbkj+xW4B3bWswDwZB/g/oWthKnAoC1LYCeBICysVNt5jz02lW19TAFUG2nOwGQxl3XAWTfGA7AATgAB+AAHIADcAAOwAH8UwCTT0pK9CUAxpU6k4/6xv3zZRVRdXql2VNV+x8UtlTV6WEL/felRUp1etFC/31xl1Kd3rTQn1ReDwwekPlTq9+lg3LAMWWH1Wkd/zLV71KhOmIacfcDQ39V9VvHX3rIN+OuJ0x93ErxF1W/df1/Q3XMmmCbtvrveypgegfdbfD/s/HyWHVRtb8L6/EDuiNNgMsKCQoAAAAASUVORK5CYII=;" vertex="1" parent="1">
          <mxGeometry x="264.38" y="170" width="20" height="20" as="geometry" />
        </mxCell>
        <mxCell id="v_2MPb_NcIat8Og6rA1i-70" value="" style="curved=1;endArrow=classic;html=1;rounded=0;exitX=0.476;exitY=0.1;exitDx=0;exitDy=0;exitPerimeter=0;" edge="1" parent="1" source="v_2MPb_NcIat8Og6rA1i-54">
          <mxGeometry width="50" height="50" relative="1" as="geometry">
            <mxPoint x="450" y="150" as="sourcePoint" />
            <mxPoint x="430" y="110" as="targetPoint" />
            <Array as="points">
              <mxPoint x="520" y="100" />
              <mxPoint x="460" y="120" />
            </Array>
          </mxGeometry>
        </mxCell>
        <mxCell id="v_2MPb_NcIat8Og6rA1i-71" value="XBranch&amp;nbsp;" style="curved=1;endArrow=classic;html=1;rounded=0;entryX=1;entryY=0.5;entryDx=0;entryDy=0;exitX=0.5;exitY=0;exitDx=0;exitDy=0;" edge="1" parent="1" source="v_2MPb_NcIat8Og6rA1i-49" target="v_2MPb_NcIat8Og6rA1i-11">
          <mxGeometry width="50" height="50" relative="1" as="geometry">
            <mxPoint x="510" y="30" as="sourcePoint" />
            <mxPoint x="500" y="20" as="targetPoint" />
            <Array as="points">
              <mxPoint x="500" y="10" />
              <mxPoint x="450" y="20" />
            </Array>
          </mxGeometry>
        </mxCell>
        <mxCell id="v_2MPb_NcIat8Og6rA1i-72" value="" style="curved=1;endArrow=classic;html=1;rounded=0;exitX=0.465;exitY=-0.1;exitDx=0;exitDy=0;exitPerimeter=0;" edge="1" parent="1" source="v_2MPb_NcIat8Og6rA1i-54">
          <mxGeometry width="50" height="50" relative="1" as="geometry">
            <mxPoint x="435" y="122" as="sourcePoint" />
            <mxPoint x="430" y="70" as="targetPoint" />
            <Array as="points">
              <mxPoint x="500" y="40" />
            </Array>
          </mxGeometry>
        </mxCell>
        <mxCell id="v_2MPb_NcIat8Og6rA1i-74" value="Raised PR&amp;nbsp;" style="curved=1;endArrow=classic;html=1;rounded=0;entryX=0.481;entryY=-0.3;entryDx=0;entryDy=0;entryPerimeter=0;exitX=0;exitY=0.5;exitDx=0;exitDy=0;" edge="1" parent="1" source="v_2MPb_NcIat8Og6rA1i-11" target="v_2MPb_NcIat8Og6rA1i-64">
          <mxGeometry width="50" height="50" relative="1" as="geometry">
            <mxPoint x="390" y="330" as="sourcePoint" />
            <mxPoint x="440" y="280" as="targetPoint" />
            <Array as="points">
              <mxPoint x="290" y="10" />
            </Array>
          </mxGeometry>
        </mxCell>
        <mxCell id="v_2MPb_NcIat8Og6rA1i-75" value="" style="curved=1;endArrow=classic;html=1;rounded=0;entryX=0.5;entryY=-0.3;entryDx=0;entryDy=0;entryPerimeter=0;exitX=0;exitY=0.5;exitDx=0;exitDy=0;" edge="1" parent="1" source="v_2MPb_NcIat8Og6rA1i-55" target="v_2MPb_NcIat8Og6rA1i-10">
          <mxGeometry width="50" height="50" relative="1" as="geometry">
            <mxPoint x="390" y="330" as="sourcePoint" />
            <mxPoint x="440" y="280" as="targetPoint" />
            <Array as="points">
              <mxPoint x="370" y="40" />
              <mxPoint x="310" y="100" />
            </Array>
          </mxGeometry>
        </mxCell>
        <mxCell id="v_2MPb_NcIat8Og6rA1i-76" value="" style="curved=1;endArrow=classic;html=1;rounded=0;exitX=-0.318;exitY=0.455;exitDx=0;exitDy=0;exitPerimeter=0;" edge="1" parent="1" source="v_2MPb_NcIat8Og6rA1i-56">
          <mxGeometry width="50" height="50" relative="1" as="geometry">
            <mxPoint x="390" y="330" as="sourcePoint" />
            <mxPoint x="350" y="160" as="targetPoint" />
            <Array as="points">
              <mxPoint x="360" y="80" />
            </Array>
          </mxGeometry>
        </mxCell>
        <mxCell id="v_2MPb_NcIat8Og6rA1i-83" value="" style="endArrow=none;html=1;rounded=0;startArrow=none;" edge="1" parent="1" source="v_2MPb_NcIat8Og6rA1i-84">
          <mxGeometry width="50" height="50" relative="1" as="geometry">
            <mxPoint x="260" y="200" as="sourcePoint" />
            <mxPoint x="360" y="200" as="targetPoint" />
          </mxGeometry>
        </mxCell>
        <mxCell id="v_2MPb_NcIat8Og6rA1i-84" value="Review PR and Merge" style="text;html=1;align=center;verticalAlign=middle;resizable=0;points=[];autosize=1;strokeColor=none;fillColor=none;" vertex="1" parent="1">
          <mxGeometry x="245" y="200" width="140" height="20" as="geometry" />
        </mxCell>
        <mxCell id="v_2MPb_NcIat8Og6rA1i-86" value="" style="endArrow=none;html=1;rounded=0;" edge="1" parent="1" target="v_2MPb_NcIat8Og6rA1i-84">
          <mxGeometry width="50" height="50" relative="1" as="geometry">
            <mxPoint x="260" y="200" as="sourcePoint" />
            <mxPoint x="360" y="200" as="targetPoint" />
          </mxGeometry>
        </mxCell>
        <mxCell id="v_2MPb_NcIat8Og6rA1i-88" value="" style="shape=flexArrow;endArrow=classic;html=1;rounded=0;entryX=0.5;entryY=0;entryDx=0;entryDy=0;" edge="1" parent="1" target="v_2MPb_NcIat8Og6rA1i-9">
          <mxGeometry width="50" height="50" relative="1" as="geometry">
            <mxPoint x="304" y="230" as="sourcePoint" />
            <mxPoint x="335" y="230" as="targetPoint" />
          </mxGeometry>
        </mxCell>
      </root>
    </mxGraphModel>
  </diagram>
</mxfile>
